<?xml version="1.0" encoding="utf-8"?>
<svg viewBox="-110.111 -144.5726 1039.2417 528.7421" xmlns="http://www.w3.org/2000/svg">
  <path d="M 131.527 -96.066 C 131.153 -99.019 130.397 -101.912 129.279 -104.671 C 128.991 -105.725 128.272 -106.61 127.299 -107.109 C 126.656 -107.277 125.981 -107.284 125.334 -107.131 L 115.247 -105.588 C 114.403 -105.549 113.594 -105.235 112.945 -104.694 C 111.632 -103.312 112.925 -101.087 112.885 -99.181 C 112.84 -97.037 110.935 -95.297 108.87 -94.722 C 106.762 -94.296 104.587 -94.323 102.49 -94.801 L 88.385 -96.993 C 92.539 -98.319 96.237 -100.787 99.056 -104.114 C 100.912 -106.312 101.9 -110.418 99.217 -111.459 C 98.42 -111.678 97.589 -111.745 96.767 -111.656 C 90.377 -111.606 85.348 -116.942 79.365 -119.189 C 71.51 -121.949 62.772 -119.344 57.71 -112.734 L 65.224 -112.371 C 65.931 -112.41 66.632 -112.223 67.226 -111.838 C 68.873 -110.485 66.825 -107.886 67.057 -105.767 C 67.359 -103.015 71.013 -102.427 73.768 -102.149 C 76.523 -101.87 80.018 -99.632 78.693 -97.201 C 64.846 -92.431 50.756 -106.524 36.214 -104.789 C 32.533 -104.35 29.058 -102.904 25.465 -101.995 C 3.514 -96.441 -19.179 -111.26 -41.603 -108.121 C -46.588 -107.272 -51.488 -105.979 -56.243 -104.26 C -59.295 -103.258 -62.479 -102.175 -64.696 -99.851 C -66.914 -97.527 -67.758 -93.553 -65.657 -91.123 C -71.447 -90.646 -77.276 -91.2 -82.873 -92.759 C -79.79 -91.045 -77.888 -87.786 -77.914 -84.259 C -86.955 -82.785 -95.756 -80.101 -104.081 -76.28 C -102.528 -73.696 -100.713 -71.279 -98.665 -69.065 L -110.111 -61.712 C -106.244 -60.738 -104.245 -55.465 -106.493 -52.172 C -102.484 -53.956 -99.999 -58.57 -95.712 -59.506 C -92.903 -60.119 -90.045 -58.969 -87.38 -57.89 C -84.716 -56.811 -81.787 -55.764 -79.029 -56.574 C -76.27 -57.384 -74.236 -60.961 -75.988 -63.24 C -64.198 -66.68 -52.013 -68.583 -39.736 -68.904 C -38.788 -69.023 -37.828 -68.84 -36.99 -68.383 C -35.392 -67.274 -35.812 -64.879 -35.898 -62.936 C -35.984 -60.992 -34.47 -58.438 -32.733 -59.314 C -34.776 -57.542 -33.03 -54.206 -31.069 -52.343 C -29.109 -50.48 -26.746 -47.909 -27.946 -45.485 C -28.259 -44.852 -28.791 -44.346 -29.092 -43.708 C -29.982 -41.824 -28.569 -39.627 -26.903 -38.376 C -25.237 -37.125 -23.196 -36.25 -22.039 -34.518 C -20.881 -32.785 -21.407 -29.752 -23.477 -29.51 L -29.359 -36.979 C -31.369 -34.895 -32.746 -32.284 -33.333 -29.449 C -27.095 -24.349 -26.157 -13.97 -31.379 -7.835 C -34.047 -4.7 -37.842 -2.795 -41.155 -0.349 C -44.467 2.096 -47.532 5.578 -47.524 9.696 C -47.509 16.809 -48.09 23.417 -45.425 30.012 C -40.51 42.172 -34.835 54.011 -28.434 65.459 C -26.754 68.465 -24.581 71.76 -21.176 72.278 C -25.48 61.802 -29.353 51.163 -32.798 40.361 C -30.554 40.369 -27.962 40.547 -26.647 42.365 C -25.558 43.87 -25.792 45.916 -25.453 47.743 C -25.023 49.512 -24.305 51.2 -23.329 52.737 L -2.779 89.342 C -1.076 92.376 0.878 95.634 4.134 96.862 C 6.216 97.648 8.624 97.5 10.54 98.631 C 12.042 99.518 13.053 101.092 14.584 101.927 C 18.913 104.288 24.933 99.759 28.978 102.579 C 30.135 103.385 30.871 104.666 31.936 105.589 C 35.673 108.824 41.802 106.66 46.115 109.074 C 48.895 110.629 50.335 113.74 51.818 116.56 C 55.532 123.622 61.541 130.54 69.501 131.103 C 72.001 131.279 74.555 130.805 76.998 131.361 C 79.442 131.918 81.848 134.05 81.456 136.526 C 80.783 140.77 82.88 145.417 82.317 149.677 C 81.291 157.436 70.285 160.846 69.339 168.616 C 69.132 170.317 69.456 172.073 69.051 173.738 C 68.555 175.779 67.022 177.441 66.478 179.469 C 65.446 183.314 68.2 187.139 71.225 189.726 C 74.251 192.312 77.86 194.542 79.514 198.162 C 81.262 201.989 80.404 206.451 80.972 210.619 C 82.214 219.72 90.074 226.466 98.163 230.816 C 100.628 232.141 103.274 233.425 104.869 235.724 C 106.951 238.725 106.744 242.681 107.439 246.266 C 109.142 255.048 116.534 262.284 116.744 271.226 C 116.894 277.582 113.36 283.349 111.25 289.346 C 107.246 300.973 108.506 313.768 114.7 324.392 C 116.279 327.058 118.168 329.571 119.285 332.461 C 121.278 337.619 120.631 343.482 122.469 348.697 C 124.898 355.591 131.574 361.286 130.935 368.568 C 133.966 374.862 140.659 377.955 147.389 379.828 L 159.45 383.186 C 161.76 383.829 164.173 384.477 166.525 384.011 C 168.877 383.546 171.121 381.593 171.06 379.196 C 165.145 377.862 159.041 376.444 154.165 372.84 C 149.289 369.235 145.949 362.817 147.799 357.043 C 148.657 354.365 150.482 351.273 148.747 349.061 C 147.754 347.794 145.937 347.463 144.816 346.307 C 143.069 344.505 143.669 341.476 144.926 339.303 C 146.182 337.129 147.998 335.186 148.505 332.727 C 149.029 329.91 147.747 327.063 145.289 325.589 C 147.526 324.745 149.56 323.44 151.259 321.759 C 152.829 319.966 153.554 317.202 152.319 315.163 C 155.987 315.629 160.317 315.856 162.724 313.051 C 164.647 310.81 164.515 307.461 163.755 304.608 C 162.996 301.756 161.712 298.985 161.672 296.033 C 170.132 296.434 178.611 296.146 187.025 295.173 C 185.808 291.076 183.043 287.613 179.316 285.52 C 183.127 284.875 186.599 280.313 187.802 276.64 C 189.006 272.968 188.699 268.968 187.955 265.175 C 187.669 264.199 187.63 263.167 187.841 262.172 C 188.27 260.804 189.614 259.97 190.856 259.256 L 209.771 248.393 C 210.9 247.828 211.923 247.072 212.795 246.16 C 214.777 243.833 214.484 240.319 213.469 237.435 C 212.454 234.551 210.829 231.84 210.438 228.808 C 209.269 219.74 218.976 213.234 222.252 204.699 C 223.537 201.349 223.799 197.708 224.048 194.129 C 224.315 190.284 224.335 185.819 221.383 183.342 C 218.554 180.967 214.133 181.497 211.172 179.288 C 208.457 177.263 207.521 173.33 204.556 171.694 C 201.862 170.208 198.486 171.153 195.491 170.454 C 190.217 169.224 186.898 163.146 181.513 162.584 C 178.474 162.266 175.034 163.752 172.544 161.982 C 170.349 160.422 170.261 157.288 169.844 154.628 C 168.344 146.163 161.73 139.527 153.269 138 C 150.136 137.498 146.725 137.689 144.06 135.967 C 141.361 134.223 140.123 130.959 138.003 128.545 C 134.586 124.653 129.205 123.271 124.163 122.086 L 103.658 117.265 C 100.018 116.409 95.326 115.955 93.372 119.144 C 92.794 120.358 92.385 121.646 92.156 122.971 C 90.654 127.888 86.153 131.277 81.011 131.359 C 79.293 128.428 76.509 126.273 73.24 125.346 C 71.16 124.766 68.935 124.702 66.952 123.849 C 62.392 121.624 60.641 116.024 63.119 111.597 C 65.55 107.269 64.78 101.851 61.24 98.372 C 57.753 95.241 52.709 94.484 48.033 94.798 C 46.808 92.126 48.856 89.111 51.063 87.169 C 53.269 85.227 55.949 83.318 56.429 80.418 C 57.185 75.856 51.365 72.392 46.946 73.752 C 42.527 75.112 39.706 79.404 37.842 83.636 C 36.772 86.063 35.862 88.62 34.175 90.667 C 32.488 92.714 29.77 94.179 27.2 93.522 C 23.561 92.592 22.156 88.269 21.351 84.601 C 20.27 79.679 19.183 74.689 19.41 69.655 C 19.636 64.621 21.333 59.452 25.045 56.045 C 31.094 50.492 40.373 51.036 48.536 51.922 C 46.608 49.749 47.084 46.087 49.148 44.041 C 51.359 42.076 54.398 41.33 57.269 42.046 C 59.729 42.558 61.945 43.883 63.56 45.808 C 65.88 48.636 66.539 52.455 68.293 55.665 C 70.046 58.875 73.989 61.614 77.216 59.891 C 80.003 58.404 80.446 54.538 79.752 51.456 C 79.058 48.374 77.585 45.376 77.836 42.227 C 78.316 36.217 84.545 32.6 90.043 30.125 C 95.54 27.65 101.835 24.321 102.706 18.356 C 102.735 17.188 102.956 16.032 103.358 14.935 C 103.967 13.967 104.815 13.17 105.819 12.621 C 121.863 2.018 138.174 -8.714 156.511 -14.508 C 157.465 -14.809 157.577 -14.474 158.55 -14.711 C 159.91 -15.497 159.009 -17.673 157.704 -18.549 C 156.4 -19.425 154.656 -20.098 154.325 -21.634 C 154.081 -22.763 154.747 -23.872 154.92 -25.015 C 155.345 -27.822 151.987 -30.413 149.379 -29.291 C 147.906 -31.242 150.82 -33.509 153.177 -34.157 C 160.254 -36.105 167.519 -37.292 174.848 -37.697 C 175.693 -37.832 176.56 -37.685 177.313 -37.278 C 178.544 -36.425 178.387 -34.47 177.515 -33.253 C 176.642 -32.036 175.285 -31.271 174.198 -30.242 C 171.777 -27.883 170.872 -24.372 171.85 -21.137 C 175.676 -19.19 179.836 -17.187 184.073 -17.873 C 188.311 -18.558 192.072 -23.319 190.08 -27.122 C 188.225 -30.663 182.654 -31.462 181.696 -35.342 C 180.574 -39.886 187.006 -43.927 185.557 -48.378 C 184.922 -50.327 182.98 -51.474 181.489 -52.882 C 177.885 -56.414 176.823 -61.797 178.815 -66.433 C 173.887 -65.566 168.846 -67.144 165.292 -70.665 C 162.057 -73.929 159.477 -79.078 154.884 -78.932 C 150.669 -78.798 147.039 -73.881 143.098 -75.381 C 142.128 -75.75 141.106 -76.502 140.166 -76.061 C 139.543 -75.656 139.139 -74.987 139.073 -74.246 C 138.071 -69.458 139.794 -64.002 137.185 -59.864 C 134.345 -55.362 127.776 -54.738 124.333 -50.677 C 122.464 -48.473 121.74 -45.503 120.022 -43.18 C 118.304 -40.856 114.658 -39.378 112.597 -41.403 C 114.683 -45.693 113.53 -50.855 109.816 -53.849 C 107.902 -55.097 105.839 -56.101 103.675 -56.836 C 101.257 -57.859 98.957 -59.141 96.814 -60.659 C 95.741 -61.307 94.869 -62.24 94.296 -63.354 C 93.842 -64.75 93.903 -66.262 94.468 -67.616 C 96.598 -73.724 101.937 -78.149 108.335 -79.11 C 111.08 -79.483 114.274 -79.351 116.091 -81.443 C 117.052 -82.55 117.556 -84.223 118.952 -84.672 C 119.844 -84.851 120.77 -84.737 121.593 -84.347 L 131.838 -80.741 C 132.981 -80.225 134.239 -80.016 135.488 -80.137 C 136.772 -80.31 137.705 -81.444 137.627 -82.737 C 137.3 -84.439 134.682 -85.255 134.92 -86.971 C 135.054 -87.528 135.353 -88.03 135.778 -88.413 C 143.264 -96.381 153.918 -100.588 164.829 -99.885 C 166.122 -97.761 164.077 -95.246 162.375 -93.433 C 160.674 -91.62 159.306 -88.381 161.364 -86.985 C 162.207 -86.555 163.146 -86.344 164.092 -86.371 C 166.614 -86.029 169.066 -85.286 171.353 -84.169 C 174.893 -82.628 178.366 -80.942 181.77 -79.111 C 181.469 -81.356 181.182 -83.721 182.033 -85.82 C 182.884 -87.919 185.302 -89.565 187.414 -88.747 C 189.45 -87.96 190.494 -85.264 192.662 -85.017 C 195.555 -84.688 196.696 -88.962 195.488 -91.611 C 194.28 -94.26 191.887 -96.478 191.688 -99.382 C 191.553 -101.342 192.299 -103.772 190.734 -104.959 C 190.177 -105.315 189.544 -105.537 188.887 -105.606 L 149.803 -112.798 C 147.482 -113.226 144.129 -112.898 144.026 -110.541 C 143.968 -109.225 145.144 -107.923 144.623 -106.713 C 144.068 -105.421 142.242 -105.539 140.912 -105.083 C 138.849 -104.374 137.814 -101.924 138.012 -99.752 C 138.375 -97.593 139.211 -95.542 140.46 -93.744 C 137.918 -94.807 134.069 -95.003 131.527 -96.066 Z" style="fill: rgb(255, 255, 255);" transform="matrix(1, 0, 0, 1, -1.1368683772161603e-13, 0)"/>
  <path d="M 100.341 -129.243 C 95.293 -130.914 89.738 -129.251 86.439 -125.08 C 85.795 -124.233 85.255 -123.064 85.794 -122.147 C 86.566 -120.832 88.534 -121.351 89.985 -121.822 C 92.118 -122.584 94.439 -122.639 96.606 -121.98 C 97.969 -121.512 99.187 -120.685 100.556 -120.235 C 101.913 -119.667 103.473 -119.895 104.612 -120.828 C 105.551 -121.785 105.61 -123.275 105.611 -124.616 C 105.743 -125.525 105.458 -126.445 104.835 -127.12 C 104.287 -127.438 103.672 -127.62 103.039 -127.651 C 101.624 -127.913 100.344 -128.661 99.42 -129.766" style="fill: rgb(255, 255, 255);" transform="matrix(1, 0, 0, 1, -1.1368683772161603e-13, 0)"/>
  <path d="M 114.434 -133.167 C 112.026 -133.298 110.334 -130.833 111.323 -128.633 C 113.016 -128.171 114.786 -128.056 116.526 -128.294 C 118.3 -128.569 119.734 -129.884 120.162 -131.628 C 118.114 -131.255 116.001 -131.659 114.234 -132.76" style="fill: rgb(255, 255, 255);" transform="matrix(1, 0, 0, 1, -1.1368683772161603e-13, 0)"/>
  <path d="M 161.717 -139.72 C 157.107 -138.74 152.629 -137.219 148.375 -135.188 C 152.492 -133.606 155.091 -129.519 154.778 -125.12 C 154.598 -124.297 154.619 -123.443 154.839 -122.63 C 155.329 -121.442 156.749 -120.997 157.997 -120.692 C 160.24 -120.009 162.582 -119.71 164.924 -119.807 C 167.304 -119.932 169.461 -121.25 170.658 -123.311 C 170.997 -124.274 171.395 -125.216 171.85 -126.13 C 174.842 -130.687 183.731 -125.177 186.944 -129.581 C 188.075 -131.133 187.972 -133.468 189.447 -134.698 C 190.21 -135.233 191.095 -135.571 192.021 -135.68 C 198.481 -136.963 205.007 -137.893 211.569 -138.464 C 214.678 -138.735 218.731 -139.851 218.757 -142.972 C 207.046 -145.272 194.903 -143.638 184.216 -138.325 C 180.365 -136.396 175.273 -132.34 171.564 -134.897 C 170.175 -135.854 170.244 -138.432 168.333 -139.508 C 166.378 -140.609 163.792 -140.161 161.717 -139.72 Z" style="fill: rgb(255, 255, 255);" transform="matrix(1, 0, 0, 1, -1.1368683772161603e-13, 0)"/>
  <path d="M 200.017 -132.558 L 205.514 -131.502 C 201.22 -131.692 197.737 -128.065 198.101 -123.782 C 203.249 -122.062 208.861 -123.736 214.284 -123.507 C 219.707 -123.278 226.017 -119.405 225.091 -114.056 C 224.811 -112.439 223.877 -110.823 224.363 -109.256 C 224.703 -108.157 225.672 -107.377 226.219 -106.365 C 227.359 -104.257 226.448 -101.589 225.009 -99.673 C 223.57 -97.756 221.635 -96.226 220.372 -94.189 C 217.23 -89.123 219.015 -82.573 220.887 -76.912 C 221.428 -74.774 222.427 -72.778 223.816 -71.063 C 226.589 -68.115 231.107 -67.859 235.154 -67.8 C 238.1 -67.757 241.474 -67.902 243.336 -70.184 C 245.768 -73.164 244.068 -77.812 245.669 -81.309 C 247.123 -84.485 250.828 -85.847 254.184 -86.813 C 260.333 -88.584 266.6 -90.089 272.413 -92.763 C 279.632 -96.083 286.378 -101.257 294.312 -101.685 C 296.538 -101.805 298.819 -101.542 300.963 -102.152 C 303.108 -102.762 305.144 -104.615 304.982 -106.839 C 304.843 -108.738 303.236 -110.133 301.98 -111.565 C 300.725 -112.997 299.738 -115.199 300.892 -116.714 L 321.689 -120.599 C 320.215 -124.616 319.066 -129.907 322.454 -132.522 C 323.676 -133.466 325.313 -133.843 326.353 -134.983 C 328.127 -136.928 327.235 -140.276 325.188 -141.93 C 323.14 -143.583 320.372 -143.967 317.749 -144.185 C 308.63 -144.942 299.459 -144.442 290.323 -143.941 C 272.463 -142.962 254.603 -141.983 236.743 -141.004 C 233.148 -140.807 228.997 -141.108 225.699 -139.881 C 222.908 -138.843 220.923 -136.937 217.73 -136.267 C 211.836 -135.031 205.35 -135.867 200.017 -132.558 Z" style="fill: rgb(255, 255, 255);" transform="matrix(1, 0, 0, 1, -1.1368683772161603e-13, 0)"/>
  <path d="M 298.501 -89.105 C 297.941 -89.194 297.368 -89.064 296.901 -88.742 C 296.592 -88.402 296.408 -87.967 296.38 -87.508 C 296.025 -85.484 296.448 -83.401 297.564 -81.676 C 298.721 -79.952 300.723 -78.992 302.792 -79.169 C 305.267 -79.485 307.091 -81.597 309.367 -82.627 C 312.874 -84.214 327.77 -86.688 317.466 -92.255 C 313.915 -94.173 311.62 -92.48 308.822 -91.216 C 305.637 -89.587 302.069 -88.857 298.501 -89.105 Z" style="fill: rgb(255, 255, 255);" transform="matrix(1, 0, 0, 1, -1.1368683772161603e-13, 0)"/>
  <path d="M 388.751 -135.701 C 387.548 -135.209 386.541 -134.333 385.888 -133.209 C 385.264 -132.024 385.679 -130.557 386.831 -129.874 C 387.281 -129.711 387.757 -129.636 388.235 -129.652 L 393.127 -129.505 C 395.205 -129.443 397.801 -129.001 398.36 -126.998 C 398.774 -125.511 397.846 -123.6 398.966 -122.537 C 399.447 -122.165 400.025 -121.94 400.63 -121.888 C 402.242 -121.474 403.925 -121.42 405.56 -121.729 C 409.119 -122.684 407.249 -124.856 408.37 -126.791 C 410.085 -129.75 409.788 -127.959 412.811 -129.655 C 415.043 -130.908 417.927 -133.18 416.064 -136.373 C 412.824 -141.926 393.532 -138.086 388.751 -135.701 Z" style="fill: rgb(255, 255, 255);" transform="matrix(1, 0, 0, 1, -1.1368683772161603e-13, 0)"/>
  <path d="M 485.31 -138.492 L 482.469 -138.113 C 476.063 -137.258 469.621 -136.396 463.451 -134.472 C 466.122 -133.416 468.924 -132.729 471.78 -132.428 C 473.352 -132.351 474.914 -132.129 476.445 -131.765 C 479.171 -130.954 481.916 -128.859 484.549 -129.932 C 486.182 -130.598 486.714 -132.297 488.066 -133.198 C 489 -133.82 492.542 -134.827 492.938 -135.455 C 496.138 -140.53 487.77 -138.821 485.31 -138.492 Z" style="fill: rgb(255, 255, 255);" transform="matrix(1, 0, 0, 1, -1.1368683772161603e-13, 0)"/>
  <path d="M 497.784 -125.581 C 493.989 -123.46 490.469 -120.881 487.301 -117.904 C 485.966 -116.65 484.603 -115.089 484.724 -113.261 C 484.884 -110.832 487.472 -109.423 489.714 -108.473 L 498.796 -104.629 C 499.897 -106.181 498.889 -108.325 497.75 -109.851 C 496.612 -111.377 495.259 -113.142 495.762 -114.978 C 496.336 -117.074 498.891 -117.788 501.033 -118.149 C 504.524 -118.737 513.941 -118.69 512.809 -124.315 C 511.476 -130.944 501.288 -127.54 497.784 -125.581 Z" style="fill: rgb(255, 255, 255);" transform="matrix(1, 0, 0, 1, -1.1368683772161603e-13, 0)"/>
  <path d="M 495.958 249.546 C 495.093 252.049 495.011 254.997 496.507 257.182 C 498.185 259.634 501.543 260.548 504.448 259.927 C 507.342 259.157 509.921 257.499 511.822 255.186 C 513.561 253.248 514.991 251.054 516.063 248.682 C 517.559 244.985 518.614 241.124 519.207 237.18 L 522.026 222.376 C 522.656 219.067 522.632 208.923 516.551 212.228 C 514.89 213.131 511.043 220.259 509.302 222.281 C 506.165 225.924 505.749 229.459 504.098 233.873 C 502.029 239.401 497.87 244.009 495.958 249.546 Z" style="fill: rgb(255, 255, 255);" transform="matrix(1, 0, 0, 1, -1.1368683772161603e-13, 0)"/>
  <path d="M 817.14 325.303 C 815.15 324.527 813.219 323.607 811.361 322.552 C 809.499 327.673 808.509 333.069 808.432 338.517 L 822.048 330.812 C 824.096 329.653 826.418 328.043 826.374 325.69 C 826.411 325.098 826.122 324.533 825.621 324.216 C 825.318 324.095 824.989 324.056 824.666 324.104 C 822.647 324.273 820.806 325.266 818.902 325.957 C 816.997 326.648 814.77 327.013 813.023 325.988" style="fill: rgb(255, 255, 255);" transform="matrix(1, 0, 0, 1, -1.1368683772161603e-13, 0)"/>
  <path d="M 888.966 329.877 C 887.472 330.284 886.012 330.808 884.6 331.444 C 881.475 333.034 879.35 336.054 876.538 338.148 C 873.847 340.152 870.608 341.252 867.428 342.321 C 866.493 343.148 866.923 344.813 867.938 345.54 C 869.03 346.161 870.282 346.442 871.534 346.348 C 874.838 346.421 878.318 346.453 881.211 344.857 C 882.842 343.8 884.367 342.589 885.768 341.241 C 889.151 338.418 893.213 336.556 897.235 334.756 C 898.699 334.203 900.052 333.394 901.232 332.366 C 903.759 329.877 903.937 326.036 900.293 325.188 C 897.348 324.504 891.77 328.97 888.966 329.877 Z" style="fill: rgb(255, 255, 255);" transform="matrix(1, 0, 0, 1, -1.1368683772161603e-13, 0)"/>
  <path d="M 920.702 309.147 C 921.034 305.676 919.753 302.245 917.227 299.84 C 917.19 303.268 917.086 306.92 915.158 309.754 C 913.784 311.773 911.631 313.138 910.126 315.061 C 908.621 316.985 907.953 320.034 909.718 321.722 C 910.847 322.581 912.221 323.054 913.639 323.072 C 917.152 323.486 921.219 323.717 923.684 321.178 C 925.029 319.792 925.683 317.74 927.324 316.722 C 927.935 316.465 928.481 316.074 928.921 315.579 C 929.598 314.502 928.522 313.083 927.31 312.695 C 926.099 312.307 924.764 312.489 923.546 312.121 C 922.328 311.752 921.211 310.383 921.836 309.275" style="fill: rgb(255, 255, 255);" transform="matrix(1, 0, 0, 1, -1.1368683772161603e-13, 0)"/>
  <path d="M 864.298 183.476 C 862.454 183.924 860.545 184.037 858.662 183.808 C 855.533 183.233 853.099 180.875 850.573 178.942 C 844.57 174.371 837.272 171.821 829.728 171.659 C 822.865 171.529 815.939 173.389 809.199 172.091 C 809.639 174.541 811.735 176.378 813.971 177.47 C 816.207 178.561 818.675 179.111 820.922 180.181 C 824.521 181.911 827.375 184.88 828.961 188.544 C 829.685 190.233 830.14 192.072 831.237 193.547 C 833.477 196.561 837.724 197.223 841.472 196.977 C 846.359 196.655 851.463 195.25 856.009 197.071 C 859.487 198.463 861.976 201.507 864.88 203.874 C 867.784 206.241 871.874 207.998 875.209 206.29 C 868.1 203.989 863.313 197.332 863.394 189.86 C 866.665 190.161 876.085 190.045 875.577 184.488 C 875.147 179.778 867.106 182.967 864.298 183.476 Z" style="fill: rgb(255, 255, 255);" transform="matrix(1, 0, 0, 1, -1.1368683772161603e-13, 0)"/>
  <path d="M 821.514 221.793 C 822.095 218.608 825.271 215.796 824.282 212.713 C 823.598 210.581 821.126 209.529 818.888 209.476 C 816.649 209.424 814.451 210.091 812.213 210.153 C 810.756 210.076 809.296 210.097 807.842 210.215 C 803.399 210.946 800.661 215.602 796.475 217.258 C 793.929 218.264 791.069 218.072 788.422 218.768 C 782.412 220.348 778.609 226.027 774.408 230.605 C 767.62 237.971 758.777 243.128 749.024 245.409 C 745.607 246.2 741.933 246.706 739.217 248.926 C 735.62 251.865 734.735 256.903 733.935 261.478 C 731.724 274.114 728.345 286.518 723.842 298.529 L 738.112 300.351 C 740.825 300.697 743.637 301.036 746.251 300.233 C 748.151 299.516 749.95 298.558 751.604 297.381 C 757.96 293.435 765.073 290.868 772.484 289.845 C 776.221 289.331 780.139 289.237 783.646 290.627 C 787.153 292.016 790.161 295.166 790.455 298.926 C 793.545 297.965 796.914 298.784 799.217 301.057 C 801.452 303.334 802.915 306.255 803.401 309.408 C 803.776 311.361 804.153 313.7 805.964 314.519 C 807.442 315.187 809.138 314.467 810.755 314.338 C 816.241 313.899 820.794 320.296 826.186 319.195 C 831.97 318.013 833.39 309.352 839.032 307.617 C 842.273 306.62 846.818 307.832 848.37 304.818 C 849.738 302.161 847.009 299.095 847.29 296.12 C 847.637 292.457 851.958 290.902 855.289 289.339 C 866.773 283.95 872.222 268.494 866.657 257.094 C 863.36 250.34 856.873 245.023 855.674 237.603 C 854.753 231.895 857.003 225.238 853.363 220.744 C 851.512 218.458 848.377 217.196 847.275 214.469 C 846.581 212.752 846.86 210.804 846.487 208.99 C 846.114 207.177 844.531 205.279 842.74 205.75 C 837.542 207.114 835.883 223.174 833.099 227.077 C 828.868 233.008 820.182 229.101 821.514 221.793 Z" style="fill: rgb(255, 255, 255);" transform="matrix(1, 0, 0, 1, -1.1368683772161603e-13, 0)"/>
  <path d="M 725.42 189.544 C 723.643 189.046 721.703 188.555 720.001 189.267 C 718.299 189.979 717.305 192.478 718.671 193.718 C 729.359 193.302 740.113 192.888 750.711 194.34 C 762.921 196.012 775.005 200.155 787.269 198.936 C 780.263 196.869 773.142 195.217 765.943 193.988 L 753.937 191.694 C 750.716 191.019 747.462 190.517 744.188 190.188 C 737.338 189.622 732.154 191.432 725.42 189.544 Z" style="fill: rgb(255, 255, 255);" transform="matrix(1, 0, 0, 1, -1.1368683772161603e-13, 0)"/>
  <path d="M 736.12 152.318 C 735.233 152.244 734.134 152.18 733.675 152.943 C 733.236 153.672 733.738 154.635 733.503 155.452 C 733.18 156.569 731.718 156.854 730.566 156.702 C 729.413 156.55 728.167 156.186 727.146 156.742 C 726.083 157.468 725.627 158.809 726.026 160.034 C 726.443 161.217 727.118 162.293 728.002 163.184 C 729.512 165.086 731.232 166.812 733.13 168.327 C 736.804 171.039 741.78 172.346 744.094 176.282 C 744.421 177.045 744.922 177.72 745.558 178.253 C 746.669 178.956 748.118 178.421 749.314 177.875 L 753.506 175.959 C 754.261 175.687 754.935 175.229 755.465 174.627 C 756.423 173.327 755.835 171.479 755.031 170.08 C 754.227 168.68 753.198 167.231 753.371 165.626 C 753.678 162.764 757.358 161.669 758.871 159.221 C 760.396 156.753 759.403 153.573 759.579 150.677 C 759.784 147.29 761.912 142.885 758.489 140.354 C 755.579 138.204 752.797 140.191 750.708 142.565 C 746.302 147.572 744.219 152.994 736.12 152.318 Z" style="fill: rgb(255, 255, 255);" transform="matrix(1, 0, 0, 1, -1.1368683772161603e-13, 0)"/>
  <path d="M 761.566 101.715 C 762.997 104.455 765.981 106.091 767.541 108.759 C 769.233 111.652 769.04 115.389 770.875 118.193 C 772.758 121.069 776.547 122.596 777.603 125.868 C 778.756 129.44 776.14 133.782 778.225 136.903 C 779.87 139.061 783.009 139.349 785.02 137.527 C 786.848 135.536 786.756 132.452 784.814 130.573 C 783.579 129.448 781.807 128.961 780.776 127.647 C 780.239 126.888 779.882 126.017 779.73 125.1 C 779.169 122.456 779.259 119.714 779.993 117.111 C 780.268 116.451 780.339 115.722 780.194 115.022 C 779.73 113.673 777.903 113.577 776.622 112.951 C 773.71 111.53 773.781 107.422 774.29 104.223 C 773.951 106.353 766.364 102.73 765.569 101.523 C 763.991 99.126 764.85 94.503 764.538 91.854 C 761.13 93.496 759.816 98.365 761.566 101.715 Z" style="fill: rgb(255, 255, 255);" transform="matrix(1, 0, 0, 1, -1.1368683772161603e-13, 0)"/>
  <path d="M 685.129 143.877 C 683.729 142.309 681.619 140.669 679.742 141.615 C 678.31 142.336 677.916 144.318 678.477 145.82 C 679.161 147.279 680.214 148.535 681.532 149.462 C 685.444 152.689 689.658 155.601 693.071 159.352 C 699.179 166.065 702.415 175.123 709.058 181.306 C 710.393 182.74 712.162 183.697 714.092 184.031 C 716.028 184.211 718.201 182.972 718.423 181.041 C 718.607 179.45 717.498 178.027 716.414 176.848 C 713.834 174.041 711.008 171.457 708.572 168.524 C 707.447 167.398 706.74 165.921 706.568 164.338 C 706.555 162.759 707.995 161.106 709.525 161.497 C 707.665 161.022 706.285 157.921 703.553 157.339 C 701.271 156.852 700.719 158.265 698.003 157.1 C 692.822 154.878 688.757 147.938 685.129 143.877 Z" style="fill: rgb(255, 255, 255);" transform="matrix(1, 0, 0, 1, -1.1368683772161603e-13, 0)"/>
  <path d="M 806.861 -8.77 C 805.375 -9.211 803.914 -9.733 802.484 -10.333 C 798.638 -11.488 793.548 -8.66 794.061 -4.677 C 794.402 -2.031 796.865 -0.246 798.225 2.049 C 800.242 5.454 799.705 9.772 798.644 13.584 C 798.384 14.765 797.889 15.881 797.189 16.866 C 796.21 17.907 795.04 18.748 793.742 19.346 C 788.548 22.259 783.966 26.151 780.252 30.806 C 779.848 31.236 779.567 31.766 779.438 32.342 C 779.254 33.687 780.606 34.666 781.37 35.788 C 783.068 38.28 781.841 41.633 782.009 44.643 C 781.956 45.509 782.355 46.34 783.064 46.84 C 784.087 47.36 785.3 46.477 785.854 45.472 C 787.695 42.137 786.308 36.784 789.761 35.177 C 790.414 34.872 791.206 34.744 791.642 34.17 C 792.333 33.26 791.666 31.912 792.017 30.825 C 792.543 29.191 794.777 29.118 796.491 29.19 C 799.445 29.314 802.397 28.921 805.215 28.029 C 806.321 27.766 807.325 27.184 808.103 26.356 C 809.136 25.068 809.044 23.237 808.838 21.599 C 807.805 13.434 805.219 5.542 801.218 -1.651 C 804.252 -1.263 807.552 -0.928 810.169 -2.509 C 811.635 -3.394 813.392 -6.041 812.665 -7.842 C 811.516 -10.692 809.439 -8.293 806.861 -8.77 Z" style="fill: rgb(255, 255, 255);" transform="matrix(1, 0, 0, 1, -1.1368683772161603e-13, 0)"/>
  <path d="M 418.012 36.137 C 418.375 38.084 418.732 40.134 418.094 42.008 C 417.456 43.883 415.449 45.45 413.554 44.875 C 412.083 44.429 411.233 42.95 410.189 41.823 C 404.381 35.553 391.277 39.183 387.689 31.426 C 386.224 28.26 387.219 24.467 386.221 21.124 C 384.925 17.151 381.106 14.557 376.935 14.817 C 375.086 15.084 373.286 15.621 371.592 16.412 C 360.248 20.955 348.338 23.934 336.191 25.266 C 333.882 25.407 331.599 25.822 329.389 26.504 C 324.401 28.312 320.993 32.936 318.568 37.655 C 316.142 42.373 314.352 47.482 311.1 51.674 C 307.683 56.08 302.894 59.165 298.427 62.502 C 296.706 63.611 295.273 65.113 294.246 66.884 C 293.278 68.872 293.333 71.185 293.408 73.395 L 294.321 100.238 C 294.438 103.691 294.586 107.267 296.131 110.357 C 298.061 114.216 301.873 116.743 304.517 120.151 C 307.216 123.654 308.622 127.982 308.497 132.402 C 308.441 134.179 308.264 136.281 309.648 137.397 C 310.49 137.943 311.475 138.226 312.479 138.211 L 348.79 141.183 C 355.178 141.706 362.257 142.565 366.427 147.432 C 368.395 149.728 369.976 153.031 372.991 153.278 C 374.284 153.383 375.542 152.852 376.835 152.75 C 380.098 152.492 382.965 154.968 384.774 157.696 C 387.512 161.854 388.755 166.819 388.298 171.777 C 388.002 174.888 387.037 177.914 386.829 181.033 C 386.038 192.9 396.098 203.211 396.293 215.104 C 396.408 222.099 393.087 228.635 389.85 234.837 C 395.075 242.753 390.796 253.294 392.876 262.548 C 394.85 271.328 402.17 278.201 403.995 287.013 C 404.83 291.047 404.878 296.011 408.435 298.089 C 409.996 298.85 411.726 299.196 413.46 299.095 C 423.916 299.219 434.253 296.866 443.625 292.228 C 448.024 290.045 452.582 286.786 453.35 281.936 C 453.97 278.025 451.986 273.65 454.005 270.243 C 456.384 266.228 462.478 266.546 465.979 263.459 C 471.657 258.451 467.229 248.9 469.53 241.686 C 471.598 235.202 478.717 231.757 482.246 225.938 C 483.635 223.435 484.632 220.734 485.201 217.929 C 486.818 211.225 487.824 204.388 488.208 197.502 C 488.302 193.319 488.61 189.143 489.132 184.991 C 492.937 161.353 516.305 145.525 523.892 122.817 C 524.617 120.648 524.957 117.76 523.028 116.533 C 521.884 115.987 520.586 115.851 519.354 116.148 L 502.615 118.258 C 500.536 118.521 498.332 118.766 496.423 117.902 C 494.513 117.038 493.145 114.623 494.158 112.788 C 497.001 107.639 491.152 101.131 488.554 95.854 C 481.557 81.643 473.225 68.13 463.67 55.497 C 463.058 54.847 462.675 54.016 462.579 53.128 L 467.329 53.286 C 465.726 47.532 463.079 41.235 457.489 39.13 C 454.339 37.944 450.85 38.354 447.489 38.538 C 437.862 39.064 427.541 37.61 418.012 36.137 Z" style="fill: rgb(255, 255, 255);" transform="matrix(1, 0, 0, 1, -1.1368683772161603e-13, 0)"/>
  <path d="M 447.497 -93.539 C 450.016 -90.864 452.839 -88.027 456.484 -87.561 C 462.922 -86.737 467.551 -93.395 470.498 -99.177 C 470.725 -96.112 473.35 -93.784 476.421 -93.926 C 478.01 -94.194 479.527 -94.787 480.876 -95.668 C 493.632 -102.639 507.919 -106.332 522.455 -106.416 C 522.166 -108.697 523.646 -110.828 525.884 -111.353 C 528.839 -111.939 531.501 -109.384 532.927 -106.729 C 534.353 -104.075 535.242 -100.999 537.507 -99.012 C 539.772 -97.025 544.157 -97.112 545.052 -99.989 C 545.911 -102.751 543.034 -105.106 540.643 -106.735 C 538.252 -108.363 535.732 -111.377 537.342 -113.78 C 549.556 -116.484 561.845 -119.197 574.342 -119.735 C 576.47 -119.661 578.59 -120.026 580.57 -120.808 C 582.476 -121.743 583.991 -123.866 583.479 -125.926 C 577.9 -124.615 572.083 -126.809 568.76 -131.478 C 586.101 -132.909 604.545 -134.128 619.913 -125.969 C 621.758 -122.01 612.358 -118.716 614.873 -115.145 C 615.675 -114.006 617.282 -113.873 618.675 -113.847 C 629.355 -113.649 640.096 -113.454 650.655 -115.067 C 654.513 -115.656 658.411 -116.488 662.285 -116.01 C 668.738 -115.214 674.257 -110.908 680.605 -109.505 C 683.189 -108.933 686.086 -108.914 688.264 -110.417 C 690.442 -111.92 691.378 -115.342 689.593 -117.295 C 695.57 -123.153 705.491 -121.701 713.376 -118.897 C 721.261 -116.092 728.731 -111.569 737.077 -110.944 C 743.062 -110.496 749.13 -112.106 755.044 -111.083 C 758.76 -110.44 762.218 -108.786 765.85 -107.771 C 772.72 -105.85 779.986 -106.255 787.118 -106.163 C 805.316 -105.918 823.315 -102.341 840.224 -95.61 C 842.424 -94.894 844.44 -93.703 846.128 -92.122 C 847.701 -90.437 848.504 -87.819 847.446 -85.771 L 829.974 -88.324 C 831.62 -85.083 835.879 -84.531 839.338 -83.413 C 842.796 -82.295 846.383 -78.475 844.304 -75.493 C 840.556 -76.686 837.16 -72.94 835.267 -69.492 C 833.374 -66.045 831.067 -61.916 827.14 -61.706 C 823.623 -61.518 819.37 -64.513 817.078 -61.839 C 820.245 -57.844 822.956 -53.508 825.163 -48.912 C 827.428 -44.194 829.041 -38.249 825.98 -34.004 C 825.498 -33.246 824.768 -32.68 823.914 -32.402 C 821.414 -31.769 819.79 -34.828 817.997 -36.681 C 815.738 -39.017 812.321 -39.679 809.262 -40.774 C 806.203 -41.87 802.98 -44.025 802.741 -47.265 C 802.592 -49.282 803.656 -51.156 804.44 -53.02 C 805.758 -56.161 806.335 -59.563 806.125 -62.963 C 805.953 -65.698 805.186 -68.544 803.222 -70.455 C 801.257 -72.366 797.866 -72.972 795.757 -71.222 C 794.773 -70.405 793.984 -69.099 792.707 -69.05 C 790.449 -68.963 788.715 -72.9 786.899 -71.556 C 787.112 -70.124 786.815 -68.663 786.06 -67.428 C 780.639 -62.714 772.312 -64.708 765.324 -63.043 C 762.001 -62.092 758.819 -60.702 755.863 -58.911 C 754.757 -58.438 753.816 -57.649 753.159 -56.641 C 752.287 -54.946 753.248 -52.775 754.786 -51.648 C 756.417 -50.648 758.249 -50.023 760.151 -49.817 C 768.67 -48.204 777.314 -45.706 784.04 -40.234 C 790.766 -34.761 795.177 -25.716 793.049 -17.31 L 776.248 -33.364 C 776.886 -26.623 777.248 -19.864 777.334 -13.086 C 777.443 -11.763 777.261 -10.432 776.802 -9.186 C 775.604 -6.541 772.358 -5.65 769.513 -5.066 C 766.159 -4.429 764.11 -1.01 765.13 2.248 C 766.141 5.543 768.661 8.111 770.968 10.67 C 773.276 13.23 775.546 16.138 775.849 19.571 C 776.151 23.003 773.561 26.873 770.123 26.634 C 767.517 26.453 765.584 24.12 764.472 21.756 C 763.361 19.392 762.7 16.759 761.029 14.75 C 755.975 8.671 744.62 11.275 740.092 4.794 C 737.745 7.456 736.944 11.144 737.974 14.54 C 740.081 13.221 742.965 14.447 744.548 16.363 C 746.131 18.279 746.877 20.736 748.12 22.888 C 749.798 25.793 752.467 28.367 752.701 31.713 C 752.639 32.978 752.661 34.246 752.765 35.508 C 753.181 37.536 754.895 38.991 756.083 40.686 C 758.847 44.628 758.71 50.045 756.929 54.518 C 755.147 58.992 751.946 62.73 748.775 66.354 C 743.238 72.684 737.587 78.977 731.022 84.233 C 729.148 85.733 727.149 87.208 725.982 89.305 C 724.815 91.403 724.756 94.346 726.549 95.941 C 725.266 96.006 722.965 96.637 721.682 96.701 C 721.231 91.555 721.133 86.383 721.389 81.224 C 716.326 78.793 710.875 85.303 711.528 90.881 C 712.182 96.459 716.216 100.935 719.088 105.76 C 721.189 109.289 722.75 113.404 722.049 117.451 C 721.347 121.497 717.735 125.23 713.644 124.873 C 707.136 124.306 704.414 114.963 697.97 113.894 C 697.402 113.761 696.805 113.82 696.274 114.063 C 695.317 114.588 695.151 115.868 695.097 116.957 C 694.834 122.307 694.606 127.868 696.694 132.8 C 699.748 140.015 707.64 146.075 705.985 153.733 C 697.067 149.588 692.43 139.587 690.325 129.98 C 688.22 120.374 687.869 110.289 684.095 101.208 C 681.23 104.881 675.207 101.845 672.589 97.992 C 670.107 94.339 668.578 90.113 666.17 86.411 C 663.762 82.709 660.073 79.394 655.661 79.191 C 651.036 78.977 647.024 82.151 643.496 85.151 C 640.595 87.617 637.617 90.18 635.921 93.589 C 633.454 98.55 634.099 104.398 633.98 109.938 C 633.852 115.926 632.583 122.245 628.501 126.629 C 624.419 131.013 616.886 132.54 612.384 128.589 C 610.033 126.526 608.895 123.444 607.882 120.486 C 602.996 106.225 598.926 91.698 595.694 76.975 C 594.937 80.335 591.986 84.667 589.167 82.687 C 588.535 82.155 588.022 81.495 587.664 80.75 C 582.405 71.838 572.668 66.492 562.829 63.287 C 552.99 60.082 542.638 58.587 532.908 55.064 C 527.456 53.089 522.248 50.495 517.387 47.333 C 514.863 51.041 514.576 55.836 516.641 59.819 C 518.8 63.641 523.684 65.852 527.864 64.516 C 530.025 63.826 531.849 62.326 533.993 61.585 C 536.137 60.845 539.014 61.208 539.951 63.274 C 540.848 65.251 539.492 67.642 540.165 69.706 C 541.19 72.85 545.931 73.092 547.589 75.953 C 548.823 78.081 547.808 80.908 546.046 82.625 C 544.285 84.343 541.935 85.285 539.785 86.48 C 532.809 90.36 527.848 96.982 521.751 102.134 C 515.654 107.286 507.052 111.048 499.786 107.743 C 501.518 98.973 491.071 92.534 489.149 83.804 C 488.517 80.93 488.845 77.877 487.942 75.077 C 486.634 71.023 483.037 68.235 480.086 65.162 C 472.855 57.552 469.006 47.342 469.413 36.852 C 469.573 33.244 470.236 29.577 469.414 26.06 C 468.592 22.543 465.68 19.139 462.072 19.299 C 453.83 19.663 443.449 20.276 439.125 13.25 C 437.582 10.743 436.91 7.071 439.141 5.15 C 440.715 3.795 443.038 3.923 445.105 4.126 L 463.674 5.952 C 468.016 6.38 472.711 6.732 476.438 4.462 C 480.164 2.191 481.779 -3.835 478.328 -6.506 C 475.807 -8.458 471.29 -8.352 470.557 -11.455 C 469.946 -14.04 472.807 -16.972 471.262 -19.132 C 470.154 -20.68 467.664 -20.251 466.154 -19.09 C 464.645 -17.929 463.55 -16.231 461.861 -15.352 C 458.898 -13.81 455.358 -15.278 452.17 -16.275 C 448.983 -17.272 444.709 -17.357 443.163 -14.396 C 441.434 -11.085 444.697 -6.746 442.981 -3.429 C 440.712 0.958 433.028 -1.539 429.842 2.234 C 426.185 6.564 432.33 13.02 431.097 18.552 C 427.894 20.138 424.094 19.924 421.089 17.99 C 418.129 15.976 416.515 12.499 416.888 8.939 C 417.194 6.451 418.491 3.911 417.622 1.559 C 416.919 -0.342 415.01 -1.474 413.236 -2.454 L 395.192 -12.425 C 393.517 -9.317 395.634 -5.465 398.283 -3.13 C 400.932 -0.796 404.25 0.962 405.99 4.034 C 408.275 8.452 406.724 13.885 402.451 16.432 C 401.929 16.792 401.276 16.906 400.663 16.744 C 400.081 16.402 399.663 15.839 399.503 15.184 C 396.319 7.036 391.539 -0.997 383.897 -5.253 C 376.255 -9.509 365.274 -8.634 360.262 -1.464 C 359.072 0.239 358.273 2.18 357.236 3.98 C 351.727 13.546 339.917 18.075 328.883 17.779 C 327.803 17.839 326.729 17.587 325.789 17.052 C 324.006 15.821 324.086 13.207 324.359 11.057 L 325.518 1.933 C 325.75 0.101 326.087 -1.925 327.537 -3.068 C 329.582 -4.68 332.53 -3.663 335.134 -3.701 C 339.174 -3.89 342.665 -6.584 343.872 -10.444 C 344.943 -14.322 343.781 -18.475 340.851 -21.233 C 339.658 -22.354 338.057 -23.762 338.687 -25.273 C 339.196 -26.118 340.053 -26.696 341.028 -26.849 C 345.704 -28.207 350.645 -28.563 355.244 -30.165 C 359.842 -31.768 364.301 -35.046 365.39 -39.792 C 365.723 -41.246 365.875 -43.008 367.182 -43.729 C 367.837 -44.006 368.541 -44.15 369.253 -44.152 C 374.42 -44.887 378.171 -49.446 377.897 -54.658 C 380.101 -56.198 383.188 -55.065 385.32 -53.427 C 387.452 -51.79 389.334 -49.626 391.928 -48.92 C 396.762 -47.604 401.434 -51.884 406.444 -51.904 C 408.55 -51.912 410.731 -51.168 412.714 -51.882 C 414.723 -52.606 415.923 -54.606 417.465 -56.084 C 419.007 -57.562 421.713 -58.463 423.137 -56.871 L 421.924 -65.853 C 426.865 -64.605 432.104 -65.552 436.295 -68.451 L 420.623 -73.746 C 420.077 -73.883 419.574 -74.152 419.157 -74.53 C 418.018 -75.757 419.15 -77.669 420.076 -79.063 C 422.293 -82.4 422.665 -87.896 419.02 -89.557 C 416.532 -90.691 413.676 -89.33 411.288 -87.998 L 399.85 -81.62 C 399.486 -79.446 402.145 -78.214 403.793 -76.749 C 407.596 -73.368 406.314 -67.137 401.484 -65.534 C 400.838 -65.319 400.162 -65.206 399.482 -65.197 C 401.007 -63.214 401.549 -60.644 400.953 -58.213 L 393.257 -57.66 C 392.393 -57.486 391.495 -57.661 390.76 -58.147 C 389.937 -58.878 390.049 -60.159 389.858 -61.243 C 389.398 -63.86 386.835 -65.694 384.22 -66.165 C 381.605 -66.635 378.93 -66.032 376.34 -65.437 C 375.24 -65.041 374.033 -65.069 372.953 -65.515 C 372.333 -65.918 371.863 -66.512 371.613 -67.207 C 370.477 -69.959 371.538 -73.195 373.362 -75.549 C 375.185 -77.903 377.681 -79.624 379.923 -81.584 C 385.284 -86.288 389.223 -92.397 391.295 -99.222 C 395.531 -100.997 399.918 -103.409 404.154 -105.184 C 410.686 -108.491 418.011 -109.91 425.306 -109.282 L 439.654 -109.008 C 443.902 -108.927 448.265 -108.823 452.193 -107.203 C 456.121 -105.584 459.572 -102.081 459.843 -97.841 C 460.01 -96.865 459.662 -95.872 458.923 -95.213 C 458.369 -94.911 457.74 -94.769 457.109 -94.804 C 453.148 -94.665 451.458 -93.678 447.497 -93.539 Z" style="fill: rgb(255, 255, 255);" transform="matrix(1, 0, 0, 1, -1.1368683772161603e-13, 0)"/>
  <path d="M 333.133 -48.571 C 334.276 -49.653 334.718 -51.283 334.278 -52.794 C 331.496 -53.868 328.345 -53.273 326.146 -51.259 C 325.296 -50.399 324.564 -49.43 323.968 -48.378 C 322.082 -45.302 320.415 -41.628 321.507 -38.19 C 321.687 -37.432 322.165 -36.779 322.832 -36.378 C 323.322 -36.182 323.85 -36.099 324.376 -36.136 C 326.453 -36.139 328.528 -36.267 330.589 -36.519 C 331.856 -36.673 333.326 -37.031 333.815 -38.209 C 334.459 -39.757 332.902 -41.51 333.356 -43.124 C 333.654 -43.846 334.107 -44.494 334.681 -45.022 C 335.26 -45.562 335.549 -46.343 335.463 -47.13 C 335.28 -47.887 334.121 -48.317 333.703 -47.659" style="fill: rgb(255, 255, 255);" transform="matrix(1, 0, 0, 1, -1.1368683772161603e-13, 0)"/>
  <path d="M 343.903 -62.535 C 342.058 -62.958 340.156 -63.078 338.273 -62.888 C 337.856 -62.901 337.443 -62.807 337.073 -62.616 C 336.714 -62.351 336.454 -61.974 336.334 -61.545 C 335.509 -58.897 336.857 -56.06 339.43 -55.026 C 340.107 -54.871 340.755 -54.611 341.351 -54.255 C 342.943 -53.019 341.928 -50.494 342.23 -48.501 C 342.568 -46.263 344.734 -44.384 344.337 -42.156 C 344.024 -40.4 342.149 -39.01 342.451 -37.253 C 342.767 -35.412 345.103 -34.859 346.965 -34.712 C 348.044 -34.523 349.155 -34.65 350.163 -35.078 C 351.173 -35.769 351.892 -36.81 352.18 -38 C 352.943 -40.269 353.263 -42.663 353.124 -45.052 C 353.116 -46.139 352.843 -47.207 352.329 -48.165 C 351.768 -48.923 351.147 -49.635 350.471 -50.293 C 346.903 -54.442 350.659 -60.631 343.903 -62.535 Z" style="fill: rgb(255, 255, 255);" transform="matrix(1, 0, 0, 1, -1.1368683772161603e-13, 0)"/>
  <path d="M 812.965 262.501 C 812.965 262.501 539.764 105.678 422.147 135.392 C 422.147 135.392 172.882 162.217 143.993 221.232 C 143.993 221.232 64.756 -26.383 35.868 -34.637" fill="none" stroke-miterlimit="10" stroke-width="2" opacity="0.8" style="stroke: rgb(85, 214, 189);" transform="matrix(1, 0, 0, 1, -1.1368683772161603e-13, 0)"/>
  <path d="M 143.993 221.232 C 189.802 99.075 602.493 -36.288 602.493 -36.288 C 543.891 -21.431 422.147 135.392 422.147 135.392 C 422.147 135.392 164.628 -51.97 35.868 -34.637 C 35.868 -34.637 602.905 -16.066 812.965 262.501" fill="none" stroke-miterlimit="10" stroke-width="2" opacity="0.8" style="stroke: rgb(85, 214, 189);" transform="matrix(1, 0, 0, 1, -1.1368683772161603e-13, 0)"/>
  <circle cx="35.868" cy="-34.637" r="11.968" style="fill: rgb(85, 214, 189);" transform="matrix(1, 0, 0, 1, -1.1368683772161603e-13, 0)"/>
  <circle cx="143.993" cy="221.232" r="11.968" style="fill: rgb(85, 214, 189);" transform="matrix(1, 0, 0, 1, -1.1368683772161603e-13, 0)"/>
  <circle cx="602.493" cy="-36.287" r="11.968" style="fill: rgb(85, 214, 189);" transform="matrix(1, 0, 0, 1, -1.1368683772161603e-13, 0)"/>
  <circle cx="812.965" cy="262.501" r="11.968" style="fill: rgb(85, 214, 189);" transform="matrix(1, 0, 0, 1, -1.1368683772161603e-13, 0)"/>
  <circle cx="422.147" cy="135.392" r="11.968" style="fill: rgb(85, 214, 189);" transform="matrix(1, 0, 0, 1, -1.1368683772161603e-13, 0)"/>
</svg>